<svg width="87px" height="87px" viewBox="0 0 87 87" version="1.1" xmlns="http://www.w3.org/2000/svg" xmlns:xlink="http://www.w3.org/1999/xlink">
    <g id="Page-1" stroke="none" stroke-width="1" fill="none" fill-rule="evenodd">
        <g id="Group-4-Copy">
            <path d="M44.2353512,22.1637815 L50.2863172,31.6724424 L71.2941742,27.470871 L71.0518458,26.2539494 C74.1871369,31.2522593 76,37.1644212 76,43.5 C76,61.4492544 61.4492544,76 43.5,76 C25.5507456,76 11,61.4492544 11,43.5 C11,42.3028121 11.0647317,41.1207432 11.190886,39.9571022 L11.2941742,40.470871 L27.1477538,37.3001551 L29.4804543,30.3020537 L36.2929483,40.034188 L44.2353512,22.1637815 Z M59,49 C55.6666667,50.3333333 50.6666667,51 44,51 C37.3333333,51 32,50.3333333 28,49 C28,59.6666667 33,65 43,65 C53,65 58.3333333,59.6666667 59,49 Z M22,42 L21,42 C19.3431458,42 18,43.3431458 18,45 L18,45 L18,53 C18,54.6568542 19.3431458,56 21,56 L21,56 L22,56 C23.6568542,56 25,54.6568542 25,53 L25,53 L25,45 C25,43.3431458 23.6568542,42 22,42 L22,42 Z M66,42 L65,42 C63.3431458,42 62,43.3431458 62,45 L62,45 L62,53 C62,54.6568542 63.3431458,56 65,56 L65,56 L66,56 C67.6568542,56 69,54.6568542 69,53 L69,53 L69,45 C69,43.3431458 67.6568542,42 66,42 L66,42 Z M43.5,11 C54.4313612,11 64.1022188,16.396857 69.9934726,24.6714706 L51.7136828,28.3275576 L43.7646488,15.8362185 L35.7070517,33.965812 L28.5195457,23.6979463 L24.8522462,34.6998449 L11.580268,37.3542397 C14.4531553,22.3435448 27.6518642,11 43.5,11 Z" id="Combined-Shape" fill="#FFFFFF"></path>
            <circle id="Oval" stroke="#FFFFFF" stroke-width="3" cx="43.5" cy="43.5" r="42"></circle>
            <path d="" id="Path-5" stroke="#979797"></path>
        </g>
    </g>
</svg>